<svg width="0" height="0" class="hidden">
  <symbol xmlns="http://www.w3.org/2000/svg" viewBox="0 0 18 18" id="facebook">
    <path d="M2.53 17.454h5.634V11.49H6.14V9.524h2.024V7.067c0-1.355 1.135-2.458 2.53-2.458h2.53v1.966H11.2c-.558 0-1.012.441-1.012.983v1.966h2.945l-.337 1.966h-2.608v5.964h4.554c1.396 0 2.53-1.103 2.53-2.458V3.135c0-1.355-1.134-2.457-2.53-2.457H2.53C1.135.678 0 1.78 0 3.135v11.861c0 1.355 1.135 2.458 2.53 2.458zM1.012 3.135c0-.813.681-1.474 1.518-1.474h12.213c.837 0 1.518.661 1.518 1.474v11.861c0 .813-.681 1.475-1.518 1.475H11.2v-3.998h2.453l.675-3.932H11.2v-.983h3.037V3.627h-3.543c-1.953 0-3.542 1.543-3.542 3.44V8.54H5.128v3.932h2.024v3.998H2.53c-.837 0-1.518-.662-1.518-1.475V3.135z"></path>
  </symbol>
  <symbol xmlns="http://www.w3.org/2000/svg" viewBox="0 0 18 17" id="instagram">
    <path d="M2.53 16.894h12.213c1.395 0 2.53-1.102 2.53-2.457V2.576c0-1.355-1.135-2.458-2.53-2.458H2.53C1.135.118 0 1.221 0 2.576v11.86c0 1.356 1.135 2.458 2.53 2.458zM1.012 2.576c0-.813.681-1.475 1.518-1.475h12.213c.837 0 1.518.662 1.518 1.475v11.86c0 .814-.681 1.475-1.518 1.475H2.53c-.837 0-1.518-.661-1.518-1.474V2.576z"></path>
    <path d="M8.636 12.93c2.512 0 4.555-1.985 4.555-4.424s-2.043-4.423-4.555-4.423c-2.51 0-4.554 1.984-4.554 4.423 0 2.44 2.043 4.424 4.554 4.424zm0-7.864c1.954 0 3.543 1.543 3.543 3.44s-1.59 3.44-3.543 3.44-3.542-1.543-3.542-3.44 1.59-3.44 3.542-3.44zm4.774-.239c.826 0 1.5-.653 1.5-1.456 0-.804-.674-1.457-1.5-1.457-.828 0-1.5.653-1.5 1.457 0 .803.672 1.456 1.5 1.456zm0-1.942c.275 0 .5.218.5.486a.494.494 0 01-.5.485.494.494 0 01-.5-.485c0-.268.223-.486.5-.486z"></path>
  </symbol>
  <symbol xmlns="http://www.w3.org/2000/svg" viewBox="0 0 17 17" id="vk">
    <path fill-rule="evenodd" clip-rule="evenodd" d="M0 15.734V1.536C0 .69.688 0 1.536 0h14.198C16.58 0 17 .652 17 1.5v14c0 .848-.419 1.5-1.266 1.5H1.536C.688 17 0 16.582 0 15.734zM16 15V2c0-.549-.558-1-1-1H2c-.5 0-1 .451-1 1v13c0 .55.45 1 1 1h13c.766 0 1-.5 1-1z"></path>
    <path fill-rule="evenodd" clip-rule="evenodd" d="M4.318 14.295l.02-11.325a.27.27 0 01.27-.27h4.905c1.701 0 3.258.903 3.255 2.775 0 1.138-.311 1.772-.91 2.293l-.273.212.196.074c.079.032.151.063.209.092.342.176.545.358.759.587.633.674.743 1.306.743 2.277 0 2.407-2.22 3.555-4.228 3.555H4.588c-.15 0-.27-.12-.27-.27zm8.634-3.285c0-.913-.1-1.38-.597-1.908a2.032 2.032 0 00-.612-.476c-.149-.077-.686-.25-.855-.353l-.023-.016a.27.27 0 01.013-.45c.931-.578 1.35-1.043 1.351-2.333.002-1.472-1.18-2.235-2.716-2.235H4.876l-.018 10.787h4.406c1.876 0 3.688-1.05 3.688-3.016zm-5.678 1.469a.27.27 0 01-.27-.27V9.39a.27.27 0 01.27-.27c.64 0 1.492-.079 2.145.067.72.162 1.266.613 1.248 1.617-.018.968-.56 1.41-1.26 1.58-.646.156-1.478.094-2.133.094zm2.006-.618c.504-.122.836-.382.848-1.066.013-.709-.315-.965-.827-1.08a4.32 4.32 0 00-.956-.075l-.802.016v2.287l-.269-.004c.728 0 1.443.057 2.006-.079zM7.274 7.684a.27.27 0 01-.27-.27V5.043a.268.268 0 01.27-.27c.512 0 1.187-.058 1.702.063.581.136 1.019.512 1.019 1.316 0 .83-.365 1.256-.945 1.43-.505.15-1.183.102-1.776.102zm1.621-.62c.33-.099.56-.3.56-.912 0-.52-.232-.703-.602-.79-.326-.076-.717-.066-1.143-.057l-.168.003.002.636v1.203l-.27-.003c.67 0 1.216.04 1.621-.08z"></path>
  </symbol>
  <symbol xmlns="http://www.w3.org/2000/svg" viewBox="0 0 16 16" id="arrow-right">
    <path fill-rule="evenodd" clip-rule="evenodd" d="M16 8.005a.52.52 0 00-.146-.358l-4.95-4.999a.496.496 0 00-.707 0 .508.508 0 000 .714L14.294 7.5H.5c-.276 0-.5.226-.5.505 0 .278.224.504.5.504h13.793l-4.096 4.138a.508.508 0 000 .714.497.497 0 00.707 0l4.95-5A.517.517 0 0016 8.005z"></path>
  </symbol>
  <symbol xmlns="http://www.w3.org/2000/svg" viewBox="0 0 16 16" id="arrow-left">
    <path fill-rule="evenodd" clip-rule="evenodd" d="M0 8.005a.52.52 0 01.146-.358l4.95-4.999a.496.496 0 01.707 0 .508.508 0 010 .714L1.707 7.5H15.5c.276 0 .5.226.5.505a.503.503 0 01-.5.504H1.707l4.096 4.138a.508.508 0 010 .714.497.497 0 01-.707 0l-4.95-5A.517.517 0 010 8.005z"></path>
  </symbol>
</svg>